<?xml version="1.0" encoding="UTF-8"?><svg id="a" xmlns="http://www.w3.org/2000/svg" viewBox="0 0 164.87 188.84"><defs><style>.b{fill:#c61947;}</style></defs><path class="b" d="M114.9,146.75c-.92,1.97-1.59,4.08-2.02,6.36,.89-2.04,1.57-4.17,2.02-6.36Z"/><path class="b" d="M149.24,104.57l.41-.75c-.73-16.96-7.66-32.81-19.71-44.91-.27,1.54-.55,3.06-.81,4.54,10.8,11.75,16.75,26.87,16.86,42.9l3.25-1.78Z"/><path class="b" d="M88.24,42.95c1.6,.16,3.18,.37,4.75,.65,.06-1.25,.11-2.51,.17-3.75-1.64-.27-3.3-.49-4.98-.64,.02,1.25,.04,2.5,.06,3.75Z"/><path class="b" d="M65.78,44.65c1.84-.47,3.7-.86,5.59-1.17v-3.77c-2.02,.31-4.01,.71-5.98,1.19,.13,1.25,.26,2.5,.39,3.75Z"/><path class="b" d="M24.34,70.65c1.12,.54,2.2,1.15,3.25,1.84,2.51-3.96,5.48-7.66,8.87-11.06,4.14-4.14,8.74-7.64,13.7-10.46-.11-1.35-.23-2.71-.35-4.07-5.81,3.11-11.19,7.1-15.98,11.89-3.63,3.63-6.81,7.61-9.48,11.85Z"/><path class="b" d="M16.85,87.84c-.06-.06-.12-.12-.18-.17-1.12,3.82-1.9,7.76-2.33,11.77l2.81,5.13,.55,.3c.14-4.81,.81-9.52,1.97-14.08-.87-1-1.81-1.98-2.82-2.95Z"/><path class="b" d="M108.84,48.57c2.57,1.19,5.06,2.56,7.46,4.1,.33-1.25,.67-2.5,1.02-3.76-2.69-1.66-5.49-3.12-8.37-4.38-.04,1.35-.07,2.7-.11,4.04Z"/><path class="b" d="M93.41,34.19c.11-2.47,.22-4.97,.34-7.48-1.91-.27-3.85-.47-5.79-.61,.05,2.5,.09,4.99,.13,7.48,1.79,.14,3.56,.34,5.32,.61Z"/><path class="b" d="M109.12,38.38c3.39,1.32,6.69,2.9,9.86,4.72,.12-.39,.23-.78,.35-1.17,.61-2.02,1.71-3.85,2.79-5.62-4.08-2.3-8.34-4.23-12.75-5.79-.05,1.51-.09,3.02-.14,4.51-.04,1.12-.07,2.23-.1,3.35Z"/><path class="b" d="M131.17,51.86c1.15,1.02,2.27,2.07,3.37,3.16,11.7,11.7,19,26.63,21.06,42.78l3.7,6.76,4.36,2.38c-.1-21.61-8.56-41.91-23.85-57.2-2.35-2.35-4.82-4.54-7.4-6.56-.03,1.06-.14,2.15-.32,3.27-.3,1.81-.61,3.61-.92,5.4Z"/><path class="b" d="M8.41,102.14c.44-6.43,1.71-12.7,3.75-18.69-.72-.66-1.44-1.32-2.15-1.97-1.25-1.14-2.54-2.32-3.8-3.5-3.57,9.24-5.43,19.16-5.43,29.36,0,.22,0,.45,0,.67l6.3-3.44,1.33-2.43Z"/><path class="b" d="M163.5,112.33l-4.2,2.3-4.85,8.87c-3.01,13.59-9.83,26.07-19.91,36.15-9.22,9.22-20.46,15.71-32.71,19.06,4.36-2.87,8-6.74,10.61-11.28,6.35-3.21,12.22-7.45,17.4-12.63,10.95-10.95,17.69-24.97,19.43-40.12l-.03-.05-3.52-1.92c-1.35,14.91-7.81,28.74-18.52,39.46-3.71,3.71-7.81,6.92-12.19,9.57,1.15-3.37,1.78-6.98,1.78-10.73,0-1.82-.15-3.65-.45-5.45l-.19-1.16-.42-2.55-.61,3.7c-.07,.4-.14,.8-.22,1.19-.45,2.19-1.13,4.32-2.02,6.36-.84,1.91-1.87,3.74-3.06,5.46,.19-6.48,1.79-11.89,4.91-16.53,.39-.58,.71-1.23,1.05-1.92l.17-.35c2.44-4.96,4.09-10.53,5.35-18.07,1.36-8.15,1.44-16.58,1.51-24.73v-.06c.07-7.06,.32-14.63,1.72-22.17,1.47-7.88,3.37-18.25,5.11-28.68,.49-2.91,.38-5.61-.31-8.03-.38-1.33-.95-2-1.88-2.23-1.21-.3-2.11,.02-2.69,.97l-.35,.57c-1.06,1.72-2.15,3.5-2.7,5.32-1.22,4.02-2.33,8.16-3.4,12.16-.61,2.29-1.25,4.66-1.9,6.99-1.34,4.82-2.5,8.71-3.64,12.26-.69,2.17-2.5,3.45-4.21,2.98-1.71-.47-2.61-1.83-2.67-4.03-.06-2.42-.02-4.83,.03-7.07,.18-7.66,.38-15.62,.6-23.68,.07-2.44,.14-4.87,.22-7.31,.17-5.4,.35-10.98,.4-16.47,.02-1.67-.39-3.55-1.14-5.29-.75-1.74-2.3-2.65-4.38-2.54-2.1,.1-3.48,1.15-4.11,3.1-.36,1.13-.79,2.61-.86,4.07-.32,6.45-.61,13.01-.89,19.36-.2,4.44-.4,9.03-.61,13.55-.23,4.94-.55,9.96-.85,14.65-.07,1.11-.27,2.19-.6,3.23-.56,1.78-1.94,2.78-3.69,2.66-1.77-.12-3.07-1.25-3.49-3.05-.22-.96-.35-2.04-.39-3.22-.06-2.04-.09-4.12-.12-6.12-.01-.89-.03-1.77-.04-2.66-.06-3.68-.12-7.36-.19-11.05-.2-11.74-.4-23.87-.66-35.81-.04-1.98-.38-4.02-.97-5.91-.71-2.28-2.46-3.53-4.81-3.45-2.33,.08-4.2,1.58-4.77,3.81-.5,1.96-.76,3.86-.78,5.63-.06,6.73-.05,13.58-.04,20.2,0,2,0,4,0,6h.08v7.23c0,7.32,0,14.9-.01,22.34,0,.9-.11,1.86-.32,2.85-.32,1.54-1.52,2.59-3.13,2.75-1.58,.15-2.94-.69-3.55-2.2-.39-.97-.64-1.85-.77-2.67-.3-2-.58-4.04-.85-6.01-.16-1.14-.31-2.28-.47-3.41-1.72-12.12-2.7-24.14-3.72-37.47-.1-1.37-.42-2.81-.91-4.16-.77-2.13-2.34-3.29-4.39-3.29-2.28,.01-3.86,1.17-4.69,3.44-.29,.8-.58,1.64-.58,2.36v1.32c0,3.28-.01,6.67,.23,9.96,.31,4.15,.7,8.38,1.08,12.46,.34,3.72,.7,7.57,.99,11.36,.21,2.69,.34,5.43,.46,8.07,.11,2.48,.23,5.05,.42,7.56,.67,9-.41,16.86-3.31,24.04-.29,.73-.65,1.57-1.13,2.34-.89,1.4-2.15,2.21-3.57,2.28-1.41,.07-2.74-.6-3.75-1.89-.56-.71-.98-1.47-1.4-2.2l-.22-.39c-.5-.89-1-1.79-1.47-2.67-.92-1.71-1.88-3.47-2.95-5.09-5.38-8.15-12-12.74-20.22-14.02-3.62-.56-6.47-.18-8.94,1.21-.41,.23-.93,.62-1.03,1.14-.1,.54,.25,1.11,.56,1.49,.49,.61,1.03,1.18,1.59,1.7,1.28,1.19,2.6,2.4,3.88,3.57,2.27,2.08,4.62,4.23,6.88,6.41,5.54,5.32,9.09,10.99,10.84,17.33,2.33,8.4,5.69,15.42,10.29,21.45,3.72,4.89,8.18,9.77,13.61,14.92,.56,.53,1.03,1.22,1.33,1.94,1.97,4.72,3,9.87,3.13,15.72,.02,.69,.04,1.24,.07,1.69-1.02-1.39-1.92-2.87-2.69-4.4-1.45-2.86-2.46-5.94-2.99-9.13l-.61-3.7-.61,3.7c-.3,1.8-.45,3.63-.45,5.45,0,4.72,.99,9.21,2.78,13.28-6.14-3.06-11.82-7.13-16.82-12.12-10.38-10.38-16.76-23.68-18.38-38.05l-.94,.51-2.18,3.99c2.38,13.64,8.87,26.19,18.86,36.18,6.49,6.49,14.07,11.5,22.32,14.87-.07-.14-.13-.29-.18-.45,.33,.49,.66,.98,1.01,1.45,2.75,3.72,6.26,6.85,10.29,9.15-14.06-2.87-26.98-9.78-37.37-20.16-11.39-11.39-18.61-25.84-20.89-41.5l-1.93-3.53-6.21-3.4c.95,20.29,9.3,39.23,23.76,53.69,15.16,15.16,35.25,23.6,56.66,23.84l-3.01-5.5-2.4-1.31c-13.86-3.47-24.15-16.03-24.15-30.95,0-.52,.01-1.03,.04-1.55,1.78,6.2,5.36,11.81,10.32,16.05,4.65,3.98,10.29,6.57,16.28,7.53l4.94-9.03,4.99,9.12c6.21-.88,12.08-3.51,16.88-7.63,4.96-4.25,8.54-9.85,10.32-16.05,.03,.52,.04,1.04,.04,1.55,0,15.32-10.86,28.16-25.29,31.21l-1.92,1.05-2.98,5.44c20.57-.78,39.79-9.15,54.43-23.79,14.2-14.2,22.5-32.72,23.7-52.59Zm-64.69,23.53c-1.65-2.16-3.29-4.31-5.04-6.6,.46-.26,.8-.45,1.22-.69,1.37,2.42,2.7,4.78,4.04,7.14l-.22,.16Zm.53-9.59c.5-.35,.85-.6,1.3-.92,2.37,2.5,4.71,4.98,7.05,7.45l-.23,.23c-2.68-2.23-5.36-4.46-8.12-6.76Zm12.49,.81c-2.56-1.34-5.11-2.67-7.76-4.05,.39-.42,.66-.7,1.01-1.08,2.32,1.64,4.62,3.26,6.91,4.87l-.16,.26Zm1.3-23.08l.16,.23c-2.21,1.77-4.42,3.54-6.71,5.37-.37-.36-.73-.7-1.21-1.16,2.65-1.51,5.21-2.98,7.77-4.44Zm-4.86-6.85l.17,.19c-2.38,2.5-4.77,5-7.17,7.52-.51-.38-.92-.68-1.49-1.11,2.87-2.23,5.68-4.42,8.48-6.6Zm-6.32-6.47l.29,.21c-2.2,3.35-4.39,6.71-6.64,10.13-.56-.32-.99-.57-1.59-.91,2.69-3.2,5.32-6.32,7.95-9.44Zm-8.45-4.26l.28,.1c-1.27,3.98-2.54,7.95-3.87,12.08-.7-.28-1.17-.47-1.85-.74,1.82-3.85,3.63-7.65,5.43-11.45Zm-10.18,10.93h-2.31c.29-5.01,.57-9.98,.86-14.94h.37c.36,4.93,.72,9.87,1.09,14.94Zm-12.82-10.91c1.89,3.82,3.77,7.64,5.74,11.61-.73,.2-1.22,.33-1.88,.51-1.38-4.02-2.75-8.02-4.12-12.01l.26-.11Zm-.14,13.74c-.58,.34-.98,.57-1.58,.92-2.27-3.19-4.52-6.36-6.77-9.52,.1-.08,.19-.15,.29-.23,2.66,2.91,5.31,5.82,8.06,8.83Zm-5.61,3.64c-.49,.41-.82,.69-1.27,1.07-2.21-2.07-4.44-4.16-6.67-6.25l.23-.23c2.52,1.77,5.04,3.53,7.72,5.41Zm-14.9,11.72c-.21-.02-.43-.06-.84-.11,1.45-.29,2.7-.53,3.95-.78,2.33-.47,4.34-1.6,6.15-3.1,2.66-2.21,5.2-4.59,8-6.62,9.01-6.5,18.47-6.96,28.09-1.47,2.69,1.54,5.05,3.67,7.54,5.56,1.47,1.11,2.88,2.3,4.34,3.42,2.3,1.76,5.04,2.35,7.81,2.82,.18,.03,.35,.06,.84,.14-.55,.11-.79,.18-1.03,.2-4.53,.28-8.34,2.28-11.82,5.02-3.58,2.81-7.28,5.41-11.59,6.98-6.88,2.5-13.68,2.13-20.14-1.18-3.55-1.82-6.84-4.19-10.14-6.46-3.4-2.34-6.99-4.08-11.16-4.4Zm42.19,23.43c-.1,.04-.2,.09-.31,.13-1.18-2.67-2.37-5.33-3.59-8.08,.49-.17,.86-.29,1.44-.49,.83,2.85,1.64,5.65,2.46,8.44Zm-15.03-7.91c-1.16,2.69-2.3,5.33-3.43,7.97l-.28-.1c.76-2.77,1.52-5.54,2.3-8.38,.62,.22,.96,.34,1.42,.51Zm-10.5,4.6l-.26-.17c1.32-2.28,2.64-4.55,4-6.9,.45,.29,.77,.51,1.19,.79-1.67,2.13-3.3,4.2-4.93,6.28Zm-13.48-8.6l-.14-.24c2.07-1.47,4.15-2.92,6.19-4.42,.83-.61,1.16,.06,1.81,.65-2.69,1.37-5.28,2.69-7.87,4.01Zm4.15,6.43l-.14-.15c2.49-2.62,4.99-5.24,7.53-7.91,.41,.28,.78,.54,1.32,.91-2.99,2.45-5.85,4.8-8.71,7.16Zm25.74,12.17h-.3c-.32-4.69-.65-9.39-.98-14.15h2.02c-.25,4.77-.5,9.46-.74,14.15Z"/><path class="b" d="M71.28,34.15c0-1.5,0-3,0-4.5,0-1,0-2.01,0-3.02-2.38,.32-4.73,.73-7.05,1.25,.21,2.54,.42,5.04,.64,7.51,2.11-.51,4.25-.92,6.42-1.24Z"/><path class="b" d="M16.01,68.08c1.05,.16,2.07,.38,3.07,.64,3.02-4.92,6.64-9.52,10.82-13.7,5.76-5.76,12.29-10.44,19.37-13.97-.24-2.6-.48-5.26-.71-7.92-8.8,3.99-16.9,9.58-23.93,16.62-5.46,5.46-10.05,11.57-13.7,18.14,1.57-.16,3.26-.09,5.08,.19Z"/><path class="b" d="M94.97,121.78c3.98-2.13,7.8-4.59,11.82-6.97-1.43-1.01-2.73-1.98-4.08-2.86-3.51-2.29-6.91-4.81-10.61-6.74-6.37-3.31-13.02-3.44-19.4-.01-3.58,1.92-6.88,4.39-10.28,6.65-1.43,.95-2.79,1.99-4.24,3.04,3.99,2.31,7.83,4.63,11.77,6.78,8.3,4.53,16.71,4.56,25.02,.11Zm8.77-7.04c-4.1,2.31-8.01,4.52-11.92,6.73l-.28-.29c3.68-3.9,4.48-8.22,2.21-13.24,3.24,2.21,6.49,4.42,9.99,6.81Zm-23.84-7.41c1.52-.02,2.73,1.18,2.75,2.71,.02,1.49-1.16,2.72-2.6,2.71-1.48,0-2.64-1.17-2.67-2.66-.03-1.56,1.05-2.74,2.52-2.76Zm-3.35-1.48c.09-.04,.2-.05,.52-.12-4.42,3.88-3.42,9.52-.75,12.28,3.11,3.23,8.47,3.47,11.96,.63,3.1-2.53,4.52-8.58,.37-12.63,2.67,1.29,4,3.49,4.21,6.41,.36,5-3.31,9.57-8.35,10.32-4.32,.64-8.03-.46-10.73-4.11-3.24-4.4-1.93-10.4,2.78-12.78Zm-5.41,2.06c-2.11,4.81-1.32,9.06,1.83,13-.09,.11-.18,.22-.27,.33-3.75-2.14-7.49-4.27-11.44-6.52,3.44-2.37,6.66-4.59,9.88-6.82Z"/><polygon class="b" points="83.32 188.84 87.07 181.99 93.93 178.24 87.07 174.49 83.32 167.63 79.57 174.49 72.71 178.24 79.57 181.99 83.32 188.84"/><polygon class="b" points="1.51 109.6 8.37 113.35 12.12 120.21 15.87 113.35 22.72 109.6 15.87 105.85 12.12 98.99 8.37 105.85 1.51 109.6"/><polygon class="b" points="150.52 113.35 154.27 120.21 158.02 113.35 164.87 109.6 158.02 105.85 154.27 98.99 150.52 105.85 143.66 109.6 150.52 113.35"/></svg>